<?xml version="1.0" encoding="utf-8"?>
<!-- Generator: Adobe Illustrator 22.0.0, SVG Export Plug-In . SVG Version: 6.00 Build 0)  -->
<svg version="1.1" id="Layer_1" xmlns="http://www.w3.org/2000/svg" xmlns:xlink="http://www.w3.org/1999/xlink" x="0px" y="0px"
	 viewBox="0 0 190.8 66.2" style="enable-background:new 0 0 190.8 66.2;" xml:space="preserve">
<style type="text/css">
	.st0{fill:#E62D27;}
	.st1{fill:#252525;}
</style>
<title>logo</title>
<g id="Layer_2_1_">
	<g id="Layer_1-2">
		<path class="st0" d="M99,46.5c-13.2,0-23.9-10.3-23.9-23S85.8,0.6,99,0.6s23.9,10.3,23.9,23S112.2,46.5,99,46.5z M99,13.8
			c-4.9,0-8.9,4.4-8.9,9.7s4,9.8,8.9,9.8s8.9-4.4,8.9-9.8S103.9,13.8,99,13.8z"/>
		<path class="st1" d="M99,1.2c12.9,0,23.3,10,23.3,22.4S111.9,45.9,99,45.9s-23.3-10-23.3-22.4S86.1,1.2,99,1.2 M99,33.9
			c5.3,0,9.5-4.6,9.5-10.4s-4.3-10.3-9.5-10.3s-9.5,4.6-9.5,10.3S93.7,33.9,99,33.9 M99,0C85.5,0,74.5,10.6,74.5,23.5
			s11,23.6,24.5,23.6s24.5-10.6,24.5-23.6S112.5,0,99,0z M99,32.7c-4.6,0-8.3-4.1-8.3-9.2s3.7-9.1,8.3-9.1s8.3,4.1,8.3,9.1
			S103.6,32.7,99,32.7z"/>
		<path class="st1" d="M61.6,27.2c-1.2,3.2-4.2,5.4-7.6,5.5c-4.6,0-8.3-4.1-8.3-9.2s3.7-9.1,8.3-9.1c3.3,0.1,6.2,2.1,7.5,5.1
			l14.1-7.2C71.1,4.6,62.9-0.1,54,0C40.5,0,29.5,10.6,29.5,23.5s11,23.6,24.5,23.6c9,0.1,17.4-4.8,21.8-12.8L61.6,27.2z"/>
		<polygon class="st1" points="156.4,1.2 156.4,18.3 142,1.2 126.6,1.2 126.6,6.8 126.6,45.9 142,45.9 142,25.3 156.4,42.3 
			159.4,45.9 171.8,45.9 171.8,36.7 171.8,1.2 		"/>
		<rect x="11.2" y="1.2" class="st1" width="15.5" height="44.7"/>
		<path class="st0" d="M18.6,53.9c0,0,33.1-4.4,61.3-1.5s65.9,8.2,110.9,7.1c0,0-71,4.2-102.3-0.5S43,53.5,18.6,53.9z"/>
		<path class="st0" d="M0,58.8c0,0,33.1-4.4,61.3-1.5s65.9,8.2,110.9,7.1c0,0-71,4.2-102.3-0.4S24.5,58.4,0,58.8z"/>
	</g>
</g>
</svg>
